<?xml version="1.0" standalone="no"?>
<!DOCTYPE svg PUBLIC "-//W3C//DTD SVG 20010904//EN"
 "http://www.w3.org/TR/2001/REC-SVG-20010904/DTD/svg10.dtd">
<svg version="1.0" xmlns="http://www.w3.org/2000/svg"
 width="360.000000pt" height="360.000000pt" viewBox="0 0 360.000000 360.000000"
 preserveAspectRatio="xMidYMid meet">
<metadata>
Created by potrace 1.14, written by Peter Selinger 2001-2017
</metadata>
<g transform="translate(0.000000,360.000000) scale(0.100000,-0.100000)"
fill="#000000" stroke="none">
<path d="M2255 2920 c3 -4 25 -10 51 -14 72 -9 172 -64 235 -128 66 -65 131
-184 109 -198 -7 -4 -20 -6 -29 -5 -9 2 -21 4 -28 4 -6 1 -24 22 -39 49 -15
26 -46 66 -68 90 -39 42 -136 109 -136 94 0 -4 -4 -1 -8 6 -5 7 -17 15 -28 17
-107 26 -153 31 -233 29 -51 -1 -100 -6 -109 -9 -10 -4 -28 -9 -42 -11 -117
-21 -370 -141 -475 -226 -174 -140 -304 -266 -287 -277 7 -4 51 -7 100 -6 l88
0 45 42 c24 22 60 54 79 69 19 16 37 31 40 34 3 3 12 10 21 15 9 6 36 23 60
40 24 16 68 42 97 57 29 14 58 31 65 36 20 17 218 81 277 90 62 9 187 8 240
-2 116 -23 248 -126 298 -233 14 -32 27 -60 27 -63 7 -31 32 -60 59 -66 17 -3
36 -10 41 -14 6 -4 45 -7 89 -8 l78 0 -7 71 c-9 95 -66 267 -87 267 -5 0 -8 6
-8 13 0 31 -171 184 -191 171 -5 -3 -9 -2 -9 3 0 17 -152 68 -175 59 -7 -2
-16 -2 -20 2 -9 9 -125 10 -120 2z m369 -126 c3 -8 11 -12 17 -8 8 4 9 3 5 -4
-4 -7 -3 -12 3 -12 5 0 13 -9 16 -20 4 -12 11 -17 18 -14 7 4 9 3 4 -1 -4 -5
0 -17 10 -27 9 -10 14 -20 12 -22 -2 -3 -28 24 -57 60 -29 35 -48 64 -43 64 5
0 12 -7 15 -16z"/>
<path d="M990 2224 c-41 -7 -84 -15 -95 -19 -128 -48 -225 -128 -270 -222 -29
-62 -35 -90 -35 -173 -1 -67 0 -70 29 -149 49 -130 205 -244 371 -271 78 -13
685 -18 697 -6 10 10 9 517 -1 523 -5 3 -128 6 -273 6 l-265 0 -21 -24 c-72
-79 -127 -153 -118 -158 5 -4 104 -6 218 -6 l209 1 -2 -45 c-1 -25 -3 -56 -3
-67 -1 -21 -4 -21 -204 -19 -180 2 -209 5 -249 23 -51 22 -118 87 -118 113 0
10 -4 20 -8 23 -12 7 -3 105 13 136 21 41 59 76 108 102 40 21 55 22 303 24
144 1 267 4 273 8 6 4 35 39 65 79 30 40 64 82 75 94 12 12 21 26 21 31 0 13
-633 10 -720 -4z"/>
<path d="M1736 2231 c-2 -3 19 -31 47 -62 29 -30 86 -92 127 -138 41 -46 86
-96 100 -111 14 -15 61 -67 105 -115 44 -49 91 -100 105 -115 25 -26 26 -30
24 -162 -1 -160 -16 -146 149 -148 96 -1 107 1 108 17 1 10 2 72 4 138 1 66 3
125 4 130 0 6 22 33 49 61 26 28 58 65 72 81 23 28 126 143 210 234 19 21 48
53 64 71 16 18 47 53 70 77 22 25 33 42 24 38 -10 -3 -18 -3 -18 1 0 6 -249 9
-286 4 -10 -2 -232 -265 -293 -349 l-23 -31 -36 46 c-19 26 -38 49 -41 52 -4
3 -37 41 -75 85 -37 44 -86 100 -108 126 -21 25 -43 51 -47 58 -6 10 -50 14
-170 16 -88 2 -163 0 -165 -4z"/>
<path d="M860 1270 c0 -8 4 -29 9 -47 7 -25 6 -31 -4 -27 -8 3 -11 12 -8 20 3
8 1 14 -5 14 -6 0 -8 9 -5 19 3 13 -2 21 -17 26 -24 8 -49 -8 -31 -19 6 -4 11
-16 11 -27 0 -10 5 -19 10 -19 6 0 10 -7 10 -15 0 -34 56 -119 72 -109 5 3 8
2 7 -3 -3 -19 2 -34 10 -28 5 3 12 1 16 -5 8 -13 25 -13 25 1 0 5 -5 7 -10 4
-6 -4 -9 -1 -8 7 2 7 -3 12 -10 10 -8 -1 -11 2 -7 9 9 14 57 -30 48 -45 -3 -6
-3 -8 2 -4 5 5 22 -2 39 -15 59 -43 161 -87 178 -77 2 1 15 -3 31 -9 15 -6 27
-7 27 -2 0 5 -20 14 -44 20 -50 12 -157 87 -183 128 -10 15 -20 30 -24 33 -11
9 -42 74 -58 124 -15 46 -19 50 -48 51 -23 1 -33 -4 -33 -15z m34 -106 c5 -14
4 -15 -9 -4 -17 14 -19 20 -6 20 5 0 12 -7 15 -16z"/>
<path d="M2195 1281 c-11 -2 -27 -11 -35 -20 -8 -9 -44 -41 -80 -71 -36 -30
-67 -58 -70 -61 -13 -15 -175 -119 -227 -145 -32 -16 -59 -32 -61 -36 -2 -5
-11 -8 -21 -8 -9 0 -21 -4 -27 -9 -12 -12 -182 -69 -225 -76 -19 -3 -46 -8
-62 -11 -15 -3 -69 -6 -120 -6 -165 -1 -293 48 -392 148 -33 33 -65 67 -70 75
-15 20 -55 119 -55 135 0 8 -4 14 -10 14 -12 0 -12 -2 0 -34 5 -15 6 -26 0
-26 -15 0 26 -124 63 -192 19 -35 40 -62 46 -60 7 1 10 -2 6 -8 -10 -16 99
-117 158 -146 109 -56 168 -69 307 -69 98 0 150 6 223 26 283 74 536 229 787
479 l95 95 -40 5 c-22 3 -50 3 -61 -1 -12 -4 -25 -5 -28 -2 -7 7 -72 10 -101
4z m-1355 -331 c16 -23 17 -28 6 -24 -9 3 -16 11 -16 17 0 6 -8 19 -17 30 -10
11 -13 17 -6 13 7 -3 22 -20 33 -36z m105 -108 c-6 -6 -52 31 -65 52 -6 10 6
3 28 -15 22 -19 39 -35 37 -37z"/>
</g>
</svg>
